<?xml version="1.0" standalone="no"?>
<!DOCTYPE svg PUBLIC "-//W3C//DTD SVG 20010904//EN"
 "http://www.w3.org/TR/2001/REC-SVG-20010904/DTD/svg10.dtd">
<svg version="1.0" xmlns="http://www.w3.org/2000/svg"
 width="625.000000pt" height="172.000000pt" viewBox="0 0 625.000000 172.000000"
 preserveAspectRatio="xMidYMid meet">
<metadata>
Created by potrace 1.16, written by Peter Selinger 2001-2019
</metadata>
<g transform="translate(0.000000,172.000000) scale(0.100000,-0.100000)"
fill="#000000" stroke="none">
<path d="M4928 1612 c3 -40 -1 -54 -22 -79 -20 -24 -30 -57 -50 -169 -23 -125
-24 -141 -10 -161 8 -13 18 -23 23 -23 4 0 18 55 30 123 13 68 33 144 47 172
28 59 30 103 8 151 -22 47 -30 43 -26 -14z"/>
<path d="M26 1479 c-24 -19 -27 -27 -24 -72 3 -44 7 -54 33 -72 l30 -20 4
-162 3 -162 -26 -32 c-15 -17 -24 -34 -20 -38 4 -3 9 0 12 8 7 20 68 76 85 78
21 4 30 12 12 12 -19 1 -20 8 -20 151 0 100 4 150 11 150 6 0 21 12 35 26 32
35 32 93 0 128 -32 34 -96 36 -135 5z"/>
<path d="M1336 1479 c-36 -29 -37 -99 -1 -134 13 -14 29 -25 35 -25 6 0 10
-52 10 -150 0 -106 -3 -150 -11 -150 -7 0 8 -15 33 -34 43 -33 68 -82 68 -134
0 -11 4 -23 8 -26 16 -9 -4 92 -24 120 -16 25 -20 52 -24 202 -5 157 -3 173
12 178 27 8 58 54 58 85 0 15 -12 41 -26 58 -21 26 -33 31 -69 31 -28 0 -51
-7 -69 -21z"/>
<path d="M4089 1361 c-43 -44 -35 -87 21 -116 37 -19 75 -4 96 37 13 25 13 32
-1 58 -29 56 -72 64 -116 21z"/>
<path d="M3671 1215 c-35 -36 -73 -68 -85 -70 -11 -3 -434 -4 -939 -3 -504 2
-917 0 -917 -4 0 -5 422 -8 938 -8 l937 0 68 75 c38 41 67 75 64 75 -2 0 -32
-29 -66 -65z"/>
<path d="M5457 1264 c-4 -4 -23 -10 -43 -13 -49 -8 -59 -26 -45 -79 11 -39 14
-42 47 -42 l36 0 -7 40 c-5 32 -4 40 8 40 9 0 17 -14 21 -35 8 -39 23 -44 55
-17 20 16 21 20 8 62 -11 39 -17 45 -43 48 -16 2 -33 0 -37 -4z"/>
<path d="M3835 1184 c-73 -27 -125 -95 -125 -164 0 -23 -4 -30 -19 -30 -11 0
-27 -7 -35 -16 -34 -33 -9 -124 35 -124 18 0 19 -8 19 -163 0 -192 2 -197 89
-197 93 0 91 -4 91 190 l0 170 34 0 c42 0 66 28 66 77 0 41 -23 63 -66 63 -19
0 -34 3 -34 6 0 20 24 42 51 48 47 9 69 33 69 75 0 60 -22 81 -83 80 -29 0
-70 -7 -92 -15z"/>
<path d="M1640 1125 l0 -45 50 0 c28 0 50 4 50 10 0 6 324 11 938 13 l937 2
-942 3 c-659 1 -943 -1 -943 -9 0 -6 -16 -9 -37 -7 -37 3 -38 4 -35 41 2 22
-1 37 -7 37 -6 0 -11 -20 -11 -45z"/>
<path d="M1872 1008 c-65 -10 -118 -36 -158 -80 -55 -58 -69 -95 -69 -183 0
-69 4 -86 27 -127 55 -93 139 -138 259 -138 104 0 209 47 209 93 0 27 -35 86
-55 93 -9 4 -39 -4 -67 -16 -69 -30 -122 -23 -160 20 -21 22 -28 41 -28 71 0
100 78 145 177 104 44 -19 66 -13 93 25 40 57 20 98 -61 124 -62 20 -106 24
-167 14z"/>
<path d="M2387 1009 c-144 -23 -250 -156 -233 -293 8 -68 53 -144 110 -183 60
-41 103 -53 191 -53 164 0 284 112 285 265 0 173 -163 296 -353 264z m133
-174 c51 -46 44 -151 -13 -185 -50 -31 -93 -26 -133 14 -29 29 -34 41 -34 81
0 40 5 52 35 82 33 33 39 35 81 30 25 -2 54 -13 64 -22z"/>
<path d="M3105 1015 c-5 -2 -22 -6 -37 -9 -14 -3 -40 -17 -56 -31 l-30 -25
-16 25 c-14 22 -24 25 -76 25 -92 0 -90 6 -90 -254 0 -261 -2 -256 96 -256 33
0 65 5 72 12 8 8 12 47 12 110 0 127 14 192 47 218 32 25 59 26 73 1 5 -11 10
-84 10 -165 0 -172 2 -176 89 -176 87 0 89 3 93 155 4 140 14 176 55 194 63
29 73 5 73 -184 0 -166 -1 -165 93 -165 85 0 87 5 87 206 0 93 -5 186 -10 206
-32 113 -185 147 -293 65 l-34 -26 -28 29 c-15 16 -42 32 -59 35 -17 4 -38 8
-46 10 -8 2 -19 2 -25 0z"/>
<path d="M4165 1001 c-93 -43 -139 -123 -140 -246 0 -68 4 -89 29 -138 33 -69
85 -111 154 -126 56 -12 121 0 162 29 26 18 26 18 38 -1 10 -15 24 -19 75 -19
36 0 68 5 75 12 9 9 12 77 12 245 0 219 -1 233 -19 243 -29 15 -128 13 -143
-4 -11 -12 -19 -11 -50 5 -49 25 -139 25 -193 0z m199 -160 c20 -20 32 -95 22
-135 -17 -70 -104 -90 -150 -35 -45 53 -29 166 27 189 30 13 78 4 101 -19z"/>
<path d="M389 807 c-117 -62 -149 -239 -74 -405 51 -111 173 -205 306 -237
278 -65 539 86 589 343 48 244 -121 391 -336 290 -92 -43 -162 -43 -256 1 -86
40 -163 42 -229 8z m455 -130 c60 -34 98 -87 104 -146 7 -78 -5 -118 -50 -167
-136 -147 -375 -41 -356 158 14 138 181 224 302 155z"/>
<path d="M743 583 c2 -38 -2 -48 -25 -66 -27 -20 -29 -20 -63 -4 l-35 17 0
-31 c0 -84 86 -145 166 -119 117 39 112 213 -8 239 l-36 8 1 -44z"/>
<path d="M2510 371 l0 -59 -36 13 c-46 15 -77 9 -109 -22 -48 -49 -45 -144 6
-187 33 -28 76 -33 112 -15 16 9 22 9 25 0 2 -6 15 -11 28 -11 l24 0 0 170 0
170 -25 0 c-24 0 -25 -3 -25 -59z m-26 -94 c9 -7 20 -31 23 -54 5 -35 2 -45
-20 -67 -31 -31 -47 -32 -77 -8 -17 14 -23 29 -23 60 0 68 50 103 97 69z"/>
<path d="M2075 332 c-11 -2 -26 -9 -34 -16 -11 -8 -15 -8 -18 2 -3 6 -16 12
-29 12 l-24 0 0 -121 0 -120 28 3 c27 3 27 4 32 93 5 87 6 90 33 99 51 18 62
1 65 -103 3 -89 3 -91 27 -91 25 0 25 1 25 98 0 63 -5 104 -12 115 -15 20 -64
35 -93 29z"/>
<path d="M2686 329 c-66 -18 -99 -85 -77 -158 14 -49 40 -71 90 -78 84 -11
131 34 131 126 0 37 -6 56 -22 76 -26 30 -80 45 -122 34z m74 -59 c29 -29 27
-84 -5 -115 -28 -29 -42 -31 -73 -9 -18 12 -22 25 -22 64 0 39 4 52 22 64 30
21 54 20 78 -4z"/>
<path d="M2938 330 c-102 -20 -86 -127 22 -144 31 -5 40 -11 40 -26 0 -26 -39
-35 -84 -20 -38 12 -56 7 -56 -15 0 -16 51 -35 96 -35 47 0 81 18 94 50 20 49
2 67 -95 96 -20 6 -30 16 -30 29 0 17 7 20 40 19 22 0 48 -4 57 -8 13 -6 20
-3 24 9 12 29 -54 56 -108 45z"/>
<path d="M3306 325 c-20 -7 -36 -9 -36 -4 0 5 -14 9 -31 9 -28 0 -31 -3 -25
-22 3 -13 6 -87 6 -165 l0 -143 25 0 c24 0 25 3 25 56 0 50 2 55 18 48 9 -4
33 -9 52 -11 94 -12 147 137 75 210 -32 31 -63 37 -109 22z m66 -52 c26 -23
25 -96 -2 -123 -26 -26 -46 -25 -75 5 -65 64 10 179 77 118z"/>
<path d="M3556 329 c-40 -11 -65 -37 -76 -81 -14 -50 2 -110 37 -137 28 -23
82 -28 114 -11 13 7 19 7 19 0 0 -5 14 -10 30 -10 l30 0 0 120 0 120 -25 0
c-16 0 -25 -6 -25 -16 0 -12 -3 -14 -13 -6 -24 20 -62 29 -91 21z m72 -55 c30
-21 31 -95 2 -124 -43 -43 -100 -9 -100 60 0 67 49 99 98 64z"/>
<path d="M3842 324 c-18 -7 -32 -9 -32 -4 0 6 -11 10 -25 10 l-25 0 0 -120 0
-120 25 0 c25 0 25 1 25 78 0 91 12 114 58 116 26 1 32 5 32 22 0 29 -19 35
-58 18z"/>
<path d="M3984 328 c-17 -4 -39 -17 -49 -28 -23 -26 -32 -110 -15 -150 23 -55
101 -77 150 -43 22 16 23 16 17 0 -5 -14 0 -17 23 -17 l30 0 0 120 0 120 -25
0 c-17 0 -25 -6 -25 -17 0 -14 -2 -15 -17 -1 -25 21 -52 26 -89 16z m78 -55
c13 -11 18 -30 18 -64 0 -41 -4 -51 -25 -65 -51 -33 -104 20 -91 90 10 53 60
74 98 39z"/>
<path d="M4506 325 c-20 -7 -36 -9 -36 -4 0 5 -11 9 -25 9 l-25 0 0 -120 c0
-120 0 -120 24 -120 23 0 24 3 27 86 3 71 7 88 23 100 26 18 51 18 70 -2 12
-12 16 -36 16 -100 0 -83 0 -84 25 -84 25 0 25 0 25 94 0 78 -3 97 -20 118
-24 32 -58 39 -104 23z"/>
<path d="M5020 329 c-52 -11 -80 -50 -80 -109 0 -61 16 -97 51 -116 99 -51
203 37 171 144 -20 65 -73 96 -142 81z m68 -55 c17 -12 22 -25 22 -60 0 -56
-28 -89 -68 -79 -38 9 -44 17 -49 68 -4 36 -1 49 16 66 25 25 48 27 79 5z"/>
<path d="M5504 328 c-17 -4 -39 -17 -49 -28 -23 -26 -32 -110 -15 -150 22 -54
101 -77 148 -45 20 14 21 14 16 0 -5 -11 1 -15 25 -15 l31 0 0 120 0 120 -25
0 c-17 0 -25 -6 -25 -17 0 -14 -2 -15 -17 -1 -25 21 -52 26 -89 16z m78 -55
c13 -11 18 -30 18 -64 0 -41 -4 -51 -25 -65 -51 -33 -104 20 -91 90 10 53 60
74 98 39z"/>
<path d="M1710 235 c0 -88 2 -98 25 -120 28 -29 79 -33 113 -9 20 14 22 14 22
0 0 -10 9 -16 25 -16 l25 0 0 120 0 120 -30 0 -30 0 0 -85 c0 -78 -2 -86 -24
-100 -23 -16 -54 -11 -68 9 -4 6 -8 48 -8 94 0 81 0 82 -25 82 -25 0 -25 0
-25 -95z"/>
<path d="M4680 210 l0 -120 30 0 29 0 3 87 c3 83 4 88 30 103 21 11 32 12 45
4 15 -9 19 -28 21 -103 l3 -91 31 0 30 0 -4 101 c-3 91 -6 103 -27 120 -28 23
-88 25 -119 3 -20 -14 -22 -14 -22 0 0 10 -9 16 -25 16 l-25 0 0 -120z"/>
<path d="M5206 248 c20 -46 43 -100 52 -121 13 -31 20 -37 40 -35 20 3 31 21
73 116 27 62 49 115 49 118 0 3 -12 4 -27 2 -24 -3 -32 -13 -58 -75 -16 -39
-33 -74 -36 -77 -3 -4 -19 29 -36 71 -28 72 -33 78 -62 81 l-31 3 36 -83z"/>
<path d="M5710 210 l0 -120 30 0 30 0 0 85 c0 79 2 86 25 101 14 9 32 13 45 9
17 -5 20 -2 20 19 0 22 -4 26 -31 26 -17 0 -39 -5 -50 -10 -13 -7 -19 -7 -19
0 0 5 -11 10 -25 10 l-25 0 0 -120z"/>
</g>
</svg>
